<svg id="Layer_1" enable-background="new 0 0 512.317 512.317" height="512" viewBox="0 0 512.317 512.317" width="512" xmlns="http://www.w3.org/2000/svg"><g><g><g id="XMLID_5452_"><path d="m179.279 503.948c-12.336 0-22.337-10.001-22.337-22.337v-178.539c0-12.336 10.001-22.337 22.337-22.337s22.337 10.001 22.337 22.337v178.539c0 12.336-10.001 22.337-22.337 22.337z" fill="#414b82"/></g><g id="XMLID_5451_"><path d="m37.11 421.518c-11.55 0-21.333-8.894-22.245-20.603-.957-12.299 8.236-23.046 20.535-24.004l67.225-5.235v-68.605c0-12.336 10.001-22.337 22.337-22.337s22.337 10.001 22.337 22.337v89.27c0 11.664-8.974 21.364-20.603 22.269l-87.827 6.839c-.589.047-1.177.069-1.759.069z" fill="#5f6e9b"/></g></g><g fill="#ffb69e"><circle cx="152.121" cy="73.815" r="38.578"/><path d="m173.038 128.677-.495-3.987h-41.032l-.469 4.301c-1.365 12.51 8.433 23.435 21.017 23.435 12.71-.001 22.547-11.136 20.979-23.749z"/><path d="m209.594 207.53v97.831c0 10.28 8.334 18.614 18.614 18.614s18.613-8.334 18.613-18.614v-97.839l-19.653-4.309z"/><path d="m76.718 108.887-16.817-6.388-23.73-67.216c-3.422-9.694-14.056-14.777-23.749-11.355-9.693 3.422-14.777 14.055-11.355 23.749l26.604 75.355c1.823 5.162 5.825 9.26 10.943 11.204l25.077 9.525 15.329-14.868z"/></g><path d="m202.085 124.689h-29.542c.362 10.995-9.857 20.319-20.527 20.319-11.435 0-19.912-9.29-20.505-20.319h-13.189l-41.604-15.802-13.028 34.874 38.918 14.782v144.529h98.998l-.173-141.154h.653c3.912 0 7.491 3.235 7.508 6.694v38.919c.056-.001.108-.008.164-.008h37.063v-39.004c-.121-24.168-20.189-43.83-44.736-43.83z" fill="#64afff"/><g id="XMLID_5448_"><g id="XMLID_5450_"><path d="m314.386 503.375c-11.517 0-20.853-9.336-20.853-20.853v-166.683c0-11.517 9.336-20.853 20.853-20.853s20.853 9.336 20.853 20.853v166.683c0 11.517-9.336 20.853-20.853 20.853z" fill="#ffb69e"/></g><g id="XMLID_5449_"><path d="m430.982 432.881-69.766-13.211c-9.845-1.865-16.973-10.468-16.973-20.489v-83.341c0-11.517 9.337-20.853 20.853-20.853 11.517 0 20.853 9.336 20.853 20.853v66.066l52.792 9.997c11.316 2.143 18.752 13.053 16.609 24.369-2.139 11.3-13.038 18.755-24.368 16.609z" fill="#ffb69e"/></g></g><path d="m299.537 106.903-45.713-89.086c-4.382-8.539-14.857-11.91-23.395-7.527-8.539 4.381-11.909 14.856-7.528 23.395l46.411 90.444 21.37.376z" fill="#ffb69e"/><path d="m358.186 150.583-.244-1.194-36.648-.086-.309 1.71c-2.102 11.624 6.83 22.315 18.642 22.315 11.99 0 20.965-10.999 18.559-22.745z" fill="#ffb69e"/><path d="m508.148 57.791c-6.236-7.295-17.207-8.153-24.501-1.917l-73.611 62.93 6.445 17.582 18.463 5.742c23.938-19.997 51.659-43.214 71.286-59.836 7.297-6.236 8.155-17.206 1.918-24.501z" fill="#ffb69e"/><path d="m385.417 183.423s22.321-18.569 49.527-41.295l-24.909-23.324-35.675 30.499h-16.427c.001.029.006.057.008.086.444 9.924-8.764 18.376-18.376 18.376-10.302 0-17.93-8.42-18.376-18.376-.004-.094.007-.185.004-.278l-21.658-42.208-30.225 17.226 23.512 45.82-22.296 176.054c-1.025 5.914 3.552 11.314 9.512 11.314h119.403c5.989 0 10.536-5.402 9.512-11.314z" fill="#ff6473"/><ellipse cx="339.742" cy="101.807" fill="#ffb69e" rx="36.016" ry="36.016" transform="matrix(.707 -.707 .707 .707 27.519 270.052)"/></g></svg>